<svg viewBox="0 0 50 50">
<path d="m9 5.2q0 1.53-.9 2.45q-1.02 1.08-2.7 1.1q-1.6 0-2.7-1.1t-1.1-2.72t1.1-2.72t2.7-1.1q.8 0 1.52.3q.72.29 1.18.81l-.68.68q-.34-.41-.88-.63q-.53-.24-1.15-.24q-1.2 0-2.03.83q-.82.84-.82 2.1t.82 2.1q.83.83 2.03.83q1.09 0 1.82-.61q.73-.61.84-1.69h-2.66v-.88h3.55q.05.29.05.55z"></path>
<path d="m10 6q0-1.16.73-1.91q.74-.76 1.85-.76t1.84.76q.74.76.74 1.91q0 1.17-.74 1.91q-.73.76-1.84.76q-1.12 0-1.85-.76q-.73-.76-.73-1.91zm.94 0q0 .81.47 1.31q.47.5 1.17.5q.7 0 1.17-.5t.47-1.31q0-.8-.47-1.3q-.48-.51-1.17-.51q-.69 0-1.17.51q-.47.5-.47 1.3z"></path>
<path d="m16 6q0-1.16.73-1.91q.74-.76 1.85-.76t1.84.76q.74.76.74 1.91q0 1.17-.74 1.91q-.73.76-1.84.76q-1.12 0-1.85-.76q-.73-.76-.73-1.91zm.94 0q0 .81.47 1.31q.47.5 1.17.5q.7 0 1.17-.5t.47-1.31q0-.8-.47-1.3q-.48-.51-1.17-.51q-.69 0-1.17.51q-.47.5-.47 1.3z"></path>
<path d="m25 7.8q.7 0 1.14-.5q.46-.5.46-1.31q0-.79-.46-1.3q-.45-.51-1.14-.51q-.68 0-1.14.51q-.46.51-.46 1.3q0 .8.46 1.3q.46.51 1.14.51zm-.03 3.07q-.42 0-.79-.11q-.37-.1-.68-.3q-.3-.19-.51-.46q-.21-.27-.33-.59l.89-.37q.15.44.53.71t.88.27q.77 0 1.2-.46q.43-.46.43-1.27v-.48h-.04q-.27.4-.73.63q-.45.23-.98.23q-.98 0-1.69-.77q-.7-.79-.7-1.9q0-1.12.7-1.89q.71-.78 1.69-.78q.53 0 .98.24q.46.23.73.62h.04v-.7h.9v4.8q0 1.21-.69 1.89q-.7.7-1.84.7z"></path>
<path d="m29.5 1.7v7h-1v-7z"></path>
<path transform="rotate(-25 35 8)" d="m35 8q-1.1 0-1.8-.8q-.7-.8-.7-1.9q0-1.1.7-1.9q.7-.8 1.8-.8q1.1 0 1.8.7q.7.7.7 2l0 .1h-3.9q0 .7.5 1.2q.5.5 1.1.5q.9 0 1.4-.9l.8.4q-.3.6-.9 1q-.6.4-1.4.4zm-1.5-3.3h2.9q0-.5-.4-.9q-.4-.3-1-.3q-.5 0-.9.3q-.4.3-.5.9z"></path>
</svg>