<?xml version="1.0" encoding="utf-8"?>
<!-- Generator: Adobe Illustrator 16.0.0, SVG Export Plug-In . SVG Version: 6.00 Build 0)  -->
<!DOCTYPE svg PUBLIC "-//W3C//DTD SVG 1.1//EN" "http://www.w3.org/Graphics/SVG/1.1/DTD/svg11.dtd">
<svg version="1.1" id="Layer_1" xmlns="http://www.w3.org/2000/svg" xmlns:xlink="http://www.w3.org/1999/xlink" x="0px" y="0px"
	 width="273.729px" height="119.492px" viewBox="0 0 273.729 119.492" enable-background="new 0 0 273.729 119.492"
	 xml:space="preserve">
<path id="fender-rear" d="M7.252,50.136c0,0-8.822-7.388,1.192-11.575c3.538-1.479,25.462-13.096,54.372-22.11
	c21.148-6.595,56.749-12.419,78.792-11.093c22.041,1.327,127.332,64,127.332,64s1.498,2.493,0.863,6.477
	c-0.636,3.984-16.202,34.996-16.202,34.996s-3.466,6.57-7.128,4.124c-3.662-2.447-97.773-48.763-114.475-53.452
	c-16.702-4.69-56.144-9.608-99.108,6.119c-4.851,1.775-7.896,1.975-10.484-0.855S7.252,50.136,7.252,50.136z"/>
</svg>
