<?xml version="1.0" encoding="utf-8"?>
<!-- Generator: Adobe Illustrator 16.0.0, SVG Export Plug-In . SVG Version: 6.00 Build 0)  -->
<!DOCTYPE svg PUBLIC "-//W3C//DTD SVG 1.1//EN" "http://www.w3.org/Graphics/SVG/1.1/DTD/svg11.dtd">
<svg version="1.1" id="Layer_1" xmlns="http://www.w3.org/2000/svg" xmlns:xlink="http://www.w3.org/1999/xlink" x="0px" y="0px"
	 width="427.966px" height="262.712px" viewBox="0 0 427.966 262.712" enable-background="new 0 0 427.966 262.712"
	 xml:space="preserve">
<path id="fender-front" d="M9.357,256.666c0,0-4.327,0.094-4.382-2.431s14.768-101.004,59.969-146.733
	c50.372-50.96,84.199-77.97,171.483-96.826c38.916-8.407,98.999-11.167,167.413,15.133c0,0,9.865,5.562,15.434,12.659
	c5.565,7.097,6.312,8.163,2.092,13.307s-12.947,18.686-12.947,18.686s-0.257,4.696-12.953,1.724
	c-12.695-2.973-71.146-35.626-190.383,7.377c-25.96,9.363-84.322,39.001-114.843,79.359c-30.521,40.356-42.316,78.868-43.642,84.31
	s-0.448,12.641-7.302,12.789C32.444,256.169,9.357,256.666,9.357,256.666z"/>
</svg>
