<?xml version="1.0" encoding="utf-8"?>
<!-- Generator: Adobe Illustrator 16.0.0, SVG Export Plug-In . SVG Version: 6.00 Build 0)  -->
<!DOCTYPE svg PUBLIC "-//W3C//DTD SVG 1.1//EN" "http://www.w3.org/Graphics/SVG/1.1/DTD/svg11.dtd">
<svg version="1.1" id="Layer_1" xmlns="http://www.w3.org/2000/svg" xmlns:xlink="http://www.w3.org/1999/xlink" x="0px" y="0px"
	 width="177.119px" height="143.22px" viewBox="0 0 177.119 143.22" enable-background="new 0 0 177.119 143.22"
	 xml:space="preserve">
<g id="number-plate-rear">
	
		<ellipse transform="matrix(0.9986 0.0528 -0.0528 0.9986 3.9307 -4.5786)" fill="#AEB0AF" cx="88.556" cy="72.047" rx="84.498" ry="66.216"/>
	<g>
		<path fill="#5F5848" d="M35.515,82.434c-1.934-3.309-2.567-7.059-1.897-11.254l5.914,0.943c-0.214,2.955-0.007,5.159,0.622,6.615
			c1.088,2.604,3.553,4.209,7.389,4.822c2.977,0.475,5.496,0.059,7.552-1.246c2.058-1.307,3.286-3.217,3.688-5.733
			c0.495-3.103-0.107-5.422-1.808-6.966c-1.7-1.537-4.237-2.576-7.612-3.117c-0.378-0.06-0.763-0.115-1.15-0.166
			c-0.391-0.051-0.787-0.098-1.188-0.141l0.798-5.001c0.577,0.158,1.061,0.279,1.458,0.362c0.396,0.084,0.823,0.164,1.285,0.236
			c2.117,0.338,3.911,0.281,5.382-0.173c2.577-0.792,4.106-2.699,4.588-5.718c0.357-2.242-0.164-4.1-1.562-5.569
			c-1.4-1.471-3.159-2.376-5.276-2.712c-3.772-0.604-6.584,0.238-8.433,2.524c-1.017,1.256-1.784,3.157-2.297,5.698l-5.597-0.893
			c0.536-3.354,1.661-6.1,3.377-8.234c2.975-3.825,7.368-5.277,13.176-4.349c4.593,0.733,7.983,2.322,10.172,4.768
			c2.19,2.444,2.976,5.607,2.357,9.487c-0.44,2.767-1.544,4.893-3.307,6.374c-1.094,0.92-2.423,1.57-3.987,1.944
			c2.267,1.029,3.916,2.574,4.952,4.642c1.034,2.07,1.34,4.446,0.911,7.131c-0.687,4.299-2.659,7.574-5.921,9.826
			c-3.262,2.254-7.494,2.966-12.694,2.135C41.079,87.819,37.448,85.741,35.515,82.434z"/>
		<path fill="#5F5848" d="M75.479,80.278c-0.138,3.289,1.005,5.762,3.429,7.416c1.242,0.844,2.743,1.406,4.504,1.686
			c3.355,0.535,6.011-0.138,7.966-2.018c1.957-1.883,3.142-4.122,3.556-6.723c0.503-3.146-0.069-5.729-1.715-7.756
			c-1.644-2.023-3.808-3.253-6.491-3.681c-1.949-0.312-3.683-0.199-5.197,0.332c-1.514,0.532-2.872,1.393-4.07,2.577l-4.861-1.066
			l7.297-23.701l23.398,3.732l-0.873,5.472l-19.153-3.056l-3.915,12.212c1.175-0.628,2.267-1.069,3.272-1.315
			c1.788-0.426,3.784-0.463,5.985-0.109c4.13,0.658,7.42,2.548,9.867,5.667c2.448,3.124,3.346,6.725,2.694,10.814
			c-0.68,4.258-2.593,7.803-5.744,10.631c-3.15,2.832-7.608,3.785-13.374,2.865c-3.669-0.586-6.749-2.136-9.239-4.651
			c-2.491-2.513-3.563-5.938-3.216-10.267L75.479,80.278z"/>
		<path fill="#5F5848" d="M137.463,59.574c1.566,2.926,2.128,5.772,1.686,8.541l-5.597-0.892c-0.054-1.835-0.365-3.317-0.938-4.439
			c-1.062-2.106-2.976-3.377-5.742-3.819c-3.168-0.506-5.918,0.556-8.25,3.183c-2.333,2.627-4.038,6.65-5.118,12.069
			c1.604-1.7,3.467-2.865,5.589-3.493c1.938-0.551,4.018-0.651,6.239-0.297c3.775,0.604,6.873,2.334,9.299,5.191
			c2.425,2.861,3.258,6.682,2.494,11.462c-0.651,4.089-2.562,7.497-5.727,10.228c-3.166,2.734-7.215,3.704-12.142,2.918
			c-4.214-0.673-7.597-2.851-10.148-6.537c-2.552-3.684-3.224-9.312-2.016-16.885c0.893-5.596,2.331-10.237,4.316-13.919
			c3.812-7.046,9.198-10.014,16.159-8.904C132.6,54.783,135.899,56.648,137.463,59.574z M127.725,93.336
			c1.798-1.767,2.913-4.013,3.348-6.739c0.369-2.306,0.058-4.608-0.93-6.905c-0.988-2.296-3.224-3.725-6.703-4.278
			c-2.433-0.389-4.694,0.081-6.787,1.401c-2.093,1.322-3.397,3.607-3.916,6.859c-0.455,2.851-0.004,5.379,1.354,7.586
			c1.357,2.202,3.516,3.541,6.471,4.012C123.539,95.749,125.928,95.104,127.725,93.336z"/>
	</g>
</g>
</svg>
