<?xml version="1.0" encoding="utf-8"?>
<!-- Generator: Adobe Illustrator 16.0.0, SVG Export Plug-In . SVG Version: 6.00 Build 0)  -->
<!DOCTYPE svg PUBLIC "-//W3C//DTD SVG 1.1//EN" "http://www.w3.org/Graphics/SVG/1.1/DTD/svg11.dtd">
<svg version="1.1" id="Layer_1" xmlns="http://www.w3.org/2000/svg" xmlns:xlink="http://www.w3.org/1999/xlink" x="0px" y="0px"
	 width="427.966px" height="226.271px" viewBox="0 0 427.966 226.271" enable-background="new 0 0 427.966 226.271"
	 xml:space="preserve">
<g id="seat">
	<path fill="#5A3405" d="M119.914,159.821c0,0-95.199-46.29-101.142-54.1C12.828,97.91,9.111,92.939,7.269,91.174
		c-1.842-1.765-3.732-5.692,2.604-13.048c6.336-7.355,33.171-51.242,37.39-56.387c4.219-5.143,9.781-15.008,20.61-14.883
		c10.829,0.127,69.882,27.355,98.628,38.28c28.747,10.924,104.779,34.277,165.917,45.842c80.443,15.216,92.859,17.009,86.442,25.552
		c-3.857,5.136-14.852,30.636-12.595,51.518c1.629,15.071,7.959,27.179,9.708,31.546c2.294,5.725,4.869,8.194,1.264,8.272
		c-12.671,0.274-117.432,10.126-135.436,11.959c-18.004,1.834-36.792,0.798-55.023-7.828
		C208.548,203.371,233.63,211.485,119.914,159.821z"/>
	<g>
		<path fill="#471C10" d="M332.418,90.979c-29.24-5.531-61.879-13.758-91.13-22.033c-0.98,0.317-1.637,0.813-1.769,1.559
			c-1.117,6.292-3.052,32.652,1.167,82.692c1.955,23.194,11.134,53.589,22.785,67.315c6.164,0.209,12.292-0.072,18.33-0.687
			c18.004-1.833,126.863-12.065,139.534-12.34c3.606-0.078-2.138-3.892-4.431-9.616c-1.75-4.367-9.779-17.568-10.424-32.713
			c-0.861-20.253,10.313-42.469,14.171-47.605C427.07,109.009,412.862,106.195,332.418,90.979z"/>
	</g>
	<path fill="#794E24" d="M57.926,10.011c-4.761,3.307-7.985,8.465-10.663,11.729c-4.219,5.145-31.054,49.032-37.39,56.387
		C3.537,85.482,5.426,89.41,7.269,91.174c1.843,1.765,5.56,6.736,11.503,14.546c0.478,0.627,1.537,1.506,3.072,2.586
		c5.842-8.196,15.519-21.642,22.324-30.431c10.362-13.384,34.089-50.439,27.017-54.478C61.666,17.965,62.23,13.695,57.926,10.011z"
		/>
</g>
</svg>
