<?xml version="1.0" encoding="utf-8"?>
<!-- Generator: Adobe Illustrator 16.0.0, SVG Export Plug-In . SVG Version: 6.00 Build 0)  -->
<!DOCTYPE svg PUBLIC "-//W3C//DTD SVG 1.1//EN" "http://www.w3.org/Graphics/SVG/1.1/DTD/svg11.dtd">
<svg version="1.1" id="Layer_1" xmlns="http://www.w3.org/2000/svg" xmlns:xlink="http://www.w3.org/1999/xlink" x="0px" y="0px"
	 width="124.577px" height="261.017px" viewBox="0 0 124.577 261.017" enable-background="new 0 0 124.577 261.017"
	 xml:space="preserve">
<g id="shock-rear">
	<path fill="#342F2F" d="M49.922,242.058c-2.172,8.607-10.914,13.826-19.523,11.652l-1.983-0.5
		c-8.609-2.172-13.826-10.913-11.653-19.521L55.4,80.599c2.173-8.609,10.913-13.828,19.522-11.655l1.983,0.502
		c8.608,2.172,13.827,10.912,11.654,19.521L49.922,242.058z"/>
	<path fill="#9A9590" d="M22.729,222.67c0,0-3.704,11.113-4.075,14.076c-0.385,3.081,1.111,7.409,5.927,8.705
		s-4.075-3.148-2.408-9.631s4.075-12.595,4.075-12.595L22.729,222.67z"/>
	<path fill="#342F2F" d="M38.302,220.04c17.127,4.322,30.486-0.855,30.486-0.855l44.563-179.591
		c3.691-14.629-5.176-29.481-19.802-33.173L90.179,5.57C75.551,1.878,60.7,10.743,57.007,25.373L11.5,208.71
		C11.5,208.71,18.977,215.163,38.302,220.04z"/>
	<path fill="#231F20" d="M114.007,35.72c-0.136,1.288-0.329,2.58-0.655,3.873c-1.101,2.503-1.906,4.175-2.957,5.197
		c0.743,0.766,1.1,1.323,1.251,1.631c-2.091,1.603-12.733,3.419-29.763-0.879S56.347,34.595,55.267,32.191
		c0.253-0.179,0.747-0.459,1.589-0.748c-1.925-3.354,0.151-6.07,0.151-6.07c0.323-1.279,0.76-2.497,1.246-3.683
		c-0.163,0.012-0.324,0.007-0.488,0.036c-8.234,1.444-10.842,5.231-11.58,8.153c-1.911,7.572,7.688,18.12,33.438,24.62
		c25.751,6.5,39.206,1.768,41.116-5.804C121.502,45.674,120.903,41.002,114.007,35.72z"/>
	<path fill="#231F20" d="M75.385,71.289c-25.751-6.499-35.35-17.047-33.439-24.616c0.737-2.924,3.346-6.712,11.581-8.154
		c2.514-0.441,4.905,1.238,5.345,3.75c0.44,2.512-1.24,4.906-3.752,5.345c-2.517,0.441-3.651,1.058-4.091,1.369
		c1.08,2.402,9.587,9.051,26.616,13.351c17.029,4.297,27.672,2.481,29.764,0.879c-0.268-0.542-1.119-1.831-3.709-3.722
		c-2.059-1.503-2.509-4.391-1.004-6.453c1.504-2.059,4.393-2.51,6.452-1.002c7.501,5.477,8.138,10.339,7.353,13.452
		C114.59,73.057,101.135,77.788,75.385,71.289z"/>
	<path fill="#231F20" d="M71.148,88.081c-25.752-6.5-35.351-17.047-33.439-24.616c0.737-2.924,3.344-6.712,11.58-8.154
		c2.514-0.443,4.905,1.239,5.345,3.751c0.441,2.512-1.239,4.906-3.752,5.345c-2.515,0.443-3.65,1.057-4.091,1.369
		c1.081,2.404,9.588,9.052,26.618,13.35c17.027,4.298,27.671,2.482,29.761,0.881c-0.267-0.542-1.118-1.831-3.708-3.721
		c-2.059-1.506-2.508-4.394-1.004-6.454c1.504-2.058,4.393-2.508,6.452-1.004c7.502,5.478,8.14,10.339,7.353,13.453
		C110.352,89.85,96.899,94.58,71.148,88.081z"/>
	<path fill="#231F20" d="M66.91,104.873c-25.751-6.5-35.35-17.047-33.439-24.618c0.737-2.922,3.345-6.71,11.58-8.153
		c2.514-0.442,4.906,1.24,5.345,3.75c0.439,2.514-1.239,4.906-3.751,5.347c-2.517,0.441-3.652,1.057-4.091,1.369
		c1.08,2.402,9.586,9.052,26.616,13.351c17.029,4.297,27.672,2.481,29.763,0.877c-0.267-0.538-1.119-1.829-3.709-3.721
		c-2.058-1.503-2.507-4.392-1.004-6.452c1.504-2.059,4.395-2.509,6.453-1.004c7.502,5.479,8.139,10.341,7.353,13.453
		C106.114,106.642,92.661,111.371,66.91,104.873z"/>
	<path fill="#231F20" d="M62.671,121.664c-25.75-6.499-35.35-17.048-33.439-24.617c0.737-2.923,3.345-6.709,11.58-8.153
		c2.514-0.443,4.907,1.237,5.346,3.751c0.44,2.511-1.239,4.904-3.751,5.344c-2.517,0.441-3.652,1.057-4.091,1.37
		c1.079,2.403,9.586,9.053,26.616,13.351c17.028,4.298,27.673,2.481,29.763,0.879c-0.267-0.542-1.119-1.829-3.708-3.722
		c-2.06-1.503-2.509-4.393-1.004-6.453c1.505-2.058,4.392-2.509,6.452-1.003c7.502,5.479,8.139,10.339,7.354,13.451
		C101.875,123.434,88.422,128.163,62.671,121.664z"/>
	<path fill="#231F20" d="M58.434,138.456c-25.751-6.499-35.35-17.047-33.439-24.618c0.738-2.924,3.345-6.71,11.581-8.154
		c2.512-0.44,4.905,1.24,5.345,3.753c0.441,2.512-1.239,4.905-3.752,5.345c-2.515,0.441-3.65,1.057-4.089,1.368
		c1.078,2.405,9.586,9.054,26.616,13.351c17.027,4.297,27.672,2.483,29.762,0.879c-0.268-0.54-1.119-1.829-3.707-3.721
		c-2.06-1.503-2.509-4.393-1.006-6.452c1.505-2.059,4.395-2.509,6.454-1.006c7.5,5.48,8.138,10.342,7.353,13.455
		C97.638,140.226,84.184,144.955,58.434,138.456z"/>
	<path fill="#231F20" d="M54.196,155.248c-25.751-6.499-35.35-17.047-33.439-24.618c0.737-2.922,3.346-6.711,11.581-8.153
		c2.513-0.444,4.904,1.238,5.345,3.752c0.441,2.51-1.239,4.905-3.752,5.344c-2.517,0.44-3.651,1.057-4.091,1.369
		c1.081,2.403,9.588,9.053,26.616,13.35c17.029,4.298,27.672,2.482,29.762,0.879c-0.266-0.539-1.117-1.829-3.707-3.72
		c-2.059-1.506-2.508-4.394-1.004-6.454c1.504-2.058,4.392-2.509,6.451-1.004c7.503,5.479,8.139,10.34,7.354,13.452
		C93.401,157.017,79.946,161.747,54.196,155.248z"/>
	<path fill="#231F20" d="M49.957,172.04c-25.75-6.498-35.35-17.047-33.438-24.618c0.737-2.924,3.345-6.71,11.58-8.152
		c2.514-0.444,4.906,1.239,5.347,3.751c0.439,2.512-1.24,4.904-3.752,5.344c-2.517,0.443-3.652,1.059-4.091,1.369
		c1.079,2.402,9.587,9.053,26.616,13.352c17.029,4.297,27.672,2.48,29.763,0.878c-0.267-0.54-1.119-1.829-3.708-3.72
		c-2.059-1.504-2.508-4.393-1.004-6.453c1.504-2.06,4.393-2.511,6.451-1.004c7.502,5.479,8.141,10.339,7.354,13.453
		C89.163,173.808,75.708,178.539,49.957,172.04z"/>
	<path fill="#231F20" d="M45.72,188.831c-25.751-6.5-35.35-17.047-33.438-24.617c0.737-2.922,3.344-6.711,11.58-8.152
		c2.513-0.442,4.905,1.237,5.346,3.75c0.44,2.513-1.24,4.906-3.751,5.346c-2.517,0.441-3.652,1.057-4.091,1.369
		c1.079,2.403,9.586,9.051,26.615,13.35s27.671,2.482,29.762,0.881c-0.267-0.541-1.118-1.83-3.708-3.723
		c-2.059-1.504-2.508-4.392-1.004-6.452c1.506-2.058,4.394-2.512,6.453-1.005c7.5,5.479,8.137,10.34,7.352,13.453
		C84.924,190.601,71.47,195.329,45.72,188.831z"/>
	<path fill="#231F20" d="M41.481,205.624c-25.75-6.499-35.35-17.049-33.438-24.617c0.739-2.924,3.345-6.712,11.58-8.154
		c2.513-0.443,4.905,1.238,5.346,3.751c0.441,2.512-1.239,4.905-3.751,5.345c-2.517,0.442-3.651,1.057-4.091,1.368
		c1.079,2.405,9.587,9.054,26.616,13.353c17.028,4.295,27.673,2.48,29.763,0.879c-0.268-0.541-1.119-1.831-3.708-3.722
		c-2.06-1.502-2.509-4.392-1.005-6.453c1.505-2.06,4.394-2.509,6.453-1.005c7.501,5.479,8.138,10.34,7.353,13.455
		C80.686,207.392,67.232,212.122,41.481,205.624z"/>
	<path fill="#231F20" d="M37.244,222.415c-25.751-6.501-35.351-17.047-33.439-24.617c0.737-2.922,3.346-6.711,11.58-8.152
		c2.513-0.445,4.906,1.238,5.345,3.75c0.44,2.512-1.239,4.905-3.751,5.347c-2.518,0.44-3.652,1.056-4.091,1.368
		c1.08,2.402,9.586,9.053,26.616,13.35c17.029,4.298,27.673,2.48,29.763,0.879c-0.267-0.54-1.118-1.83-3.709-3.721
		c-2.058-1.505-2.508-4.391-1.004-6.454c1.505-2.056,4.394-2.509,6.453-1.003c7.502,5.479,8.139,10.34,7.353,13.451
		C76.45,224.185,62.995,228.913,37.244,222.415z"/>
	<path fill="#9A9590" d="M65.071,46.085c-3.824-1.539-3.143-4.239-0.444-2.792c2.698,1.447,6.343,2.176,7.966,1.818
		c0.805-0.177,0.533-0.765,0.06-1.314c-5.518-1.763-9.45-3.813-11.913-5.522c-1.229-0.559-2.888-1.117-3.709-0.537
		c-1.743,1.232-2.336,3.195-0.662,5.658c2.959,2.25,7.175,4.433,12.833,6.324C68.713,48.48,67.101,46.904,65.071,46.085z"/>
	<path fill="#9A9590" d="M60.803,62.818c-3.725-1.5-3.062-4.13-0.432-2.721c2.628,1.41,6.179,2.118,7.759,1.772
		c0.783-0.172,0.521-0.747,0.058-1.282c-5.374-1.716-9.204-3.714-11.604-5.38c-1.197-0.545-2.812-1.088-3.613-0.523
		c-1.699,1.201-2.276,3.113-0.645,5.509c2.882,2.193,6.99,4.319,12.501,6.162C64.351,65.149,62.782,63.614,60.803,62.818z"/>
	<path fill="#9A9590" d="M56.665,79.833c-4.066-1.637-3.342-4.509-0.472-2.971c2.869,1.54,6.745,2.314,8.471,1.936
		c0.854-0.189,0.568-0.813,0.063-1.399c-5.867-1.875-10.049-4.056-12.669-5.873c-1.307-0.594-3.071-1.188-3.945-0.571
		c-1.854,1.31-2.486,3.397-0.705,6.015c3.148,2.396,7.632,4.716,13.65,6.727C60.538,82.378,58.825,80.703,56.665,79.833z"/>
	<path fill="#9A9590" d="M52.455,96.69c-4.166-1.677-3.424-4.617-0.484-3.042c2.94,1.576,6.911,2.371,8.678,1.981
		c0.876-0.192,0.582-0.832,0.065-1.432c-6.01-1.921-10.294-4.154-12.977-6.016c-1.338-0.609-3.145-1.218-4.042-0.586
		c-1.899,1.343-2.545,3.482-0.721,6.164c3.223,2.452,7.817,4.829,13.98,6.889C56.423,99.298,54.669,97.582,52.455,96.69z"/>
	<path fill="#9A9590" d="M48.181,113.414c-4.048-1.631-3.327-4.491-0.47-2.959c2.858,1.533,6.718,2.305,8.435,1.927
		c0.853-0.187,0.567-0.811,0.062-1.394c-5.842-1.866-10.005-4.037-12.614-5.847c-1.301-0.592-3.058-1.183-3.929-0.568
		c-1.845,1.303-2.474,3.382-0.701,5.99c3.135,2.384,7.6,4.695,13.591,6.696C52.039,115.948,50.333,114.278,48.181,113.414z"/>
	<path fill="#9A9590" d="M43.993,130.318c-4.219-1.7-3.469-4.679-0.489-3.083c2.978,1.596,7.001,2.402,8.791,2.007
		c0.888-0.194,0.59-0.845,0.065-1.452c-6.088-1.945-10.428-4.209-13.146-6.094c-1.356-0.617-3.188-1.233-4.095-0.593
		c-1.924,1.359-2.579,3.525-0.73,6.244c3.265,2.484,7.92,4.892,14.165,6.979C48.013,132.958,46.235,131.22,43.993,130.318z"/>
	<path fill="#9A9590" d="M39.696,146.987c-4.021-1.62-3.305-4.46-0.466-2.939c2.837,1.523,6.671,2.289,8.377,1.914
		c0.846-0.186,0.562-0.805,0.063-1.383c-5.803-1.855-9.939-4.013-12.529-5.809c-1.293-0.588-3.037-1.177-3.902-0.564
		c-1.833,1.295-2.457,3.359-0.696,5.949c3.112,2.367,7.547,4.664,13.499,6.651C43.527,149.503,41.833,147.847,39.696,146.987z"/>
	<path fill="#9A9590" d="M35.56,164.003c-4.368-1.76-3.59-4.844-0.508-3.19s7.247,2.485,9.099,2.079
		c0.919-0.202,0.61-0.875,0.068-1.503c-6.302-2.015-10.793-4.356-13.606-6.31c-1.405-0.637-3.299-1.275-4.238-0.611
		c-1.991,1.407-2.669,3.648-0.756,6.461c3.381,2.57,8.198,5.062,14.66,7.225C39.72,166.737,37.879,164.938,35.56,164.003z"/>
	<path fill="#9A9590" d="M31.424,180.624c-4.518-1.743-3.804-4.574-0.604-2.965c3.2,1.609,7.484,2.492,9.37,2.164
		c0.935-0.162,0.601-0.791,0.028-1.388c-6.503-2.028-11.165-4.316-14.097-6.195c-1.454-0.627-3.411-1.268-4.355-0.679
		c-2,1.248-2.634,3.301-0.6,5.953c3.529,2.465,8.526,4.9,15.2,7.07C35.757,183.261,33.826,181.548,31.424,180.624z"/>
	<path fill="#9A9590" d="M27.373,197.089c-4.776-1.709-4.183-4.068-0.78-2.539c3.403,1.525,7.893,2.494,9.833,2.313
		c0.961-0.089,0.583-0.641-0.041-1.173c-6.853-2.053-11.806-4.229-14.944-5.971c-1.542-0.604-3.604-1.247-4.553-0.798
		c-2.011,0.952-2.563,2.659-0.317,5.007c3.789,2.27,9.098,4.587,16.134,6.766C32.003,199.544,29.911,197.995,27.373,197.089z"/>
	<path fill="#9A9590" d="M23.015,214.198c-4.666-1.771-3.963-4.561-0.653-2.934c3.309,1.625,7.727,2.542,9.662,2.24
		c0.961-0.148,0.611-0.776,0.016-1.37c-6.714-2.077-11.535-4.389-14.572-6.276c-1.503-0.639-3.522-1.292-4.487-0.721
		c-2.045,1.211-2.675,3.232-0.553,5.876c3.657,2.477,8.825,4.937,15.716,7.155C27.502,216.853,25.496,215.14,23.015,214.198z"/>
	<path fill="#231F20" d="M93.55,6.42L90.179,5.57c-14.197-3.583-28.574,4.68-32.785,18.543c3.777,6.056,10.788,12.784,23.797,15.985
		c15.33,3.772,26.037,1.926,32.473-2.073C116.367,23.917,107.654,9.98,93.55,6.42z"/>
	<path fill="#9A9590" d="M74.404,31.675c0,0-1.948-4.857-4.368-7.85s4.589-7.177,6.27-7.546c1.681-0.369,5.603-1.761,5.314,2.531
		c-0.289,4.294,3.822,2.156-0.016,6.347C77.77,29.348,79.459,24.22,74.404,31.675z"/>
</g>
</svg>
