<?xml version="1.0" encoding="utf-8"?>
<!-- Generator: Adobe Illustrator 16.0.0, SVG Export Plug-In . SVG Version: 6.00 Build 0)  -->
<!DOCTYPE svg PUBLIC "-//W3C//DTD SVG 1.1//EN" "http://www.w3.org/Graphics/SVG/1.1/DTD/svg11.dtd">
<svg version="1.1" id="Layer_1" xmlns="http://www.w3.org/2000/svg" xmlns:xlink="http://www.w3.org/1999/xlink" x="0px" y="0px"
	 width="330.509px" height="154.237px" viewBox="0 0 330.509 154.237" enable-background="new 0 0 330.509 154.237"
	 xml:space="preserve">
<g id="swing-arm">
	<path fill="#231F20" d="M296.83,48.783c-3.178,0.068-6.209,0.686-9.037,1.719L139.117,42.23
		C126.533,19.304,101.949,3.99,73.996,4.595C33.982,5.463,2.249,38.605,3.117,78.619c0.868,40.015,34.008,71.749,74.022,70.881
		c26.747-0.58,49.776-15.591,61.86-37.426l150.484-8.113c2.713,0.798,5.59,1.206,8.567,1.142
		c15.552-0.337,27.886-13.218,27.549-28.771C325.263,60.779,312.382,48.445,296.83,48.783z"/>
	<g>
		<circle fill="#9A9590" cx="75.568" cy="77.048" r="27.538"/>
		<path fill="#3C4142" d="M74.735,38.647c-21.208,0.46-38.027,18.025-37.567,39.233s18.025,38.027,39.233,37.567
			c21.208-0.46,38.026-18.025,37.566-39.233S95.943,38.187,74.735,38.647z M76.24,108.038C59.125,108.41,44.949,94.833,44.578,77.72
			C44.207,60.605,57.78,46.429,74.896,46.057c17.116-0.371,31.291,13.204,31.662,30.318C106.929,93.49,93.356,107.667,76.24,108.038
			z"/>
	</g>
</g>
</svg>
